<?xml version="1.0" encoding="utf-8"?>
<!-- Generator: Adobe Illustrator 26.0.2, SVG Export Plug-In . SVG Version: 6.00 Build 0)  -->
<svg version="1.1" id="Layer_1" xmlns="http://www.w3.org/2000/svg" xmlns:xlink="http://www.w3.org/1999/xlink" x="0px" y="0px"
	 viewBox="0 0 700 700" style="enable-background:new 0 0 700 700;" xml:space="preserve">
<style type="text/css">
	.st0{fill:#E90000;}
</style>
<g>
	<path class="st0" d="M548.3,122.6c-26.3-26.4-61.9-41.2-99.2-41.2s-72.9,14.8-99.2,41.2c-35.4-35.4-87.1-49.3-135.5-36.3
		s-86.2,50.8-99.2,99.2s0.9,100,36.3,135.5l181.9,180.7c4.4,4.3,10.3,6.8,16.4,6.8s12.1-2.4,16.4-6.8l181.9-180.9
		c26.3-26.3,41.1-61.9,41.1-99C589.4,184.5,574.6,148.9,548.3,122.6L548.3,122.6z M515,287.7l-165,165l-165-165
		c-23.6-23.6-32.8-57.9-24.2-90.2c8.6-32.2,33.8-57.4,66-66s66.6,0.5,90.2,24.1l16.6,16.6c4.4,4.3,10.3,6.8,16.4,6.8
		s12.1-2.4,16.4-6.8l16.6-16.6c17.5-17.5,41.3-27.3,66-27.3c24.8,0,48.5,9.9,66,27.4s27.3,41.3,27.3,66
		C542.3,246.5,532.5,270.2,515,287.7L515,287.7z"/>
</g>
</svg>
