<?xml version="1.0" encoding="utf-8"?>
<!-- Generator: Adobe Illustrator 26.0.2, SVG Export Plug-In . SVG Version: 6.00 Build 0)  -->
<svg version="1.1" id="Layer_1" xmlns="http://www.w3.org/2000/svg" xmlns:xlink="http://www.w3.org/1999/xlink" x="0px" y="0px"
	 viewBox="0 0 400 97" style="enable-background:new 0 0 400 97;" xml:space="preserve">
<style type="text/css">
	.st0{fill:#FFFFFF;}
</style>
<g>
	<path class="st0" d="M139.5,48.5l0.8,3.1c-3.3,3.7-6.2,6.6-8.5,9c-2.4,2.3-4.8,4.5-7.2,6.5c-2.4,2-4.5,3.5-6.2,4.5
		c-1.7,1-3.2,1.7-4.5,2c-3.1,0.8-5.8,0.6-8.2-0.6c-2.4-1.2-3.9-3.1-4.5-5.7c-0.7-3-0.6-6.2,0.3-9.5s2.6-7,5-10.9
		c2.4-3.9,5.4-8.4,9.2-13.5c2.8-3.8,4.2-5.8,4.1-6.2c-0.1-0.2-0.2-0.4-0.4-0.5c-0.2-0.1-0.5-0.1-0.7-0.1c-0.8,0.2-2.9,2.1-6.4,5.6
		c-3.5,3.5-7.8,8.5-13,15c-5.2,6.5-10.7,14-16.5,22.6c-0.3,0.5-1.4,2-3.1,4.7c-1.7,2.6-3,4.4-3.7,5.2c-0.8,0.9-1.5,1.4-2.2,1.5
		c-1.2,0.3-2.4-0.3-3.7-1.8c-1.3-1.5-2.2-3.2-2.6-5.1c-0.3-1.2-0.1-2.6,0.7-4.2c0.7-1.6,2.5-4.6,5.2-9c2.7-4.4,4.9-8.1,6.7-11
		c1.7-3,3.6-6.5,5.6-10.6c1.4-2.9,2.4-5.1,3-6.8c0.6-1.6,0.8-3,0.5-4.1c-0.2-0.9-0.7-1.3-1.5-1.1c-1.6,0.4-4.2,2.7-7.8,6.8
		c-3.6,4.1-7.9,10-12.9,17.6c-5,7.6-10,16.2-15.1,25.9c-1.6,3.3-2.8,5.5-3.5,6.7c-0.7,1.2-1.7,1.9-2.9,2.2c-1.5,0.4-3.1-0.4-4.9-2.3
		c-1.8-1.9-2.9-3.6-3.3-5c-0.1-0.5,0-1,0.4-1.7c4.2-6.6,7.6-12.3,10.3-16.8c2.6-4.6,4.9-8.9,6.9-12.9c1.9-4,3.3-7.2,4-9.7
		c0.7-2.5,0.9-4.3,0.6-5.5c-0.3-1.3-1.3-1.7-2.9-1.3c-1.3,0.3-3.5,1.5-6.4,3.5c-2.9,2-6.6,4.7-11,8.1c-4.4,3.3-7.9,6-10.6,7.8
		c-2.7,1.9-4.8,3-6.2,3.3c-1.4,0.3-2.2,0-2.5-1.2c-0.2-0.6-0.2-2.2-0.2-4.6c0-2.4,0.2-4.2,0.6-5.2c0.6-1.4,2.4-3.6,5.6-6.4
		c3.1-2.9,4.9-4.4,5.3-4.5c0.3-0.1,0.5,0,0.6,0.2c0,0.1-0.1,0.3-0.4,0.7c-1.5,1.4-2.5,2.5-3.2,3.4c-0.7,0.8-1,1.7-1.1,2.5
		c6.8-5.2,13.1-9.4,18.7-12.6c5.6-3.2,9.6-5.1,11.9-5.7c1.2-0.3,2.4,0,3.7,0.9c1.3,0.9,2.5,2,3.6,3.3c1.1,1.3,1.7,2.2,1.8,2.6
		c0.4,1.5,0.3,3.5-0.3,5.8c-0.6,2.4-1.4,5.1-2.6,8.4c-1.2,3.2-2.6,7.2-4.4,12.1c1.7-2.5,3.3-4.9,4.8-7.1c1.5-2.2,3.1-4.3,4.6-6.5
		c1.5-2.1,3.1-4.2,4.7-6.4c2.2-2.9,4.7-5.8,7.6-8.7c2.9-2.9,5.6-5.4,8.3-7.4s4.5-3.2,5.5-3.4c1.5-0.4,2.9-0.1,4.4,0.8
		c1.4,0.9,2.3,2,2.6,3.3c0.2,0.9-0.2,2.7-1.1,5.6c-1,2.9-2.5,6.6-4.6,11.2c-2.1,4.6-4.9,10.6-8.4,17.9c3.9-4.8,7.9-9.8,12.1-14.9
		c4.2-5.1,7.3-8.9,9.4-11.3c2.1-2.4,3.8-4.3,5.3-5.6c2-1.8,4-3.8,5.9-5.8c2-2,3.5-3.6,4.6-4.8c1.1-1.2,2.2-2.1,3.1-2.8
		c0.9-0.7,1.8-1.2,2.7-1.4c1.1-0.3,2.7,0.3,4.8,1.7c2.1,1.4,3.2,2.3,3.3,2.9c0.2,0.6-0.2,1.5-0.9,2.6c-0.8,1.1-2.4,3.2-4.9,6.4
		c-4.6,5.8-8.4,11.4-11.5,16.9c-3.1,5.5-5.2,10.3-6.5,14.6c-1.2,4.2-1.6,7.4-1.1,9.5c0.3,1.3,0.9,2.2,1.7,2.6s2,0.5,3.5,0.1
		c1.3-0.3,2.5-0.8,3.6-1.5c1.1-0.6,2.2-1.5,3.4-2.5c1.2-1,2.4-2,3.5-2.9c1.6-1.2,3.1-2.4,4.6-3.7c1.5-1.3,2.6-2.3,3.5-3
		C138.4,49.4,139,48.9,139.5,48.5z"/>
	<path class="st0" d="M169.1,50.7l0.3,1.9c-1.6,1.5-2.9,2.5-3.9,3c-1,0.6-2.5,1-4.6,1.2c-3,3.6-5.8,5.6-8.5,6
		c-1.5,0.3-2.9,0.1-4.3-0.4c-1.4-0.5-2.5-1.3-3.5-2.4c-0.9-1.1-1.6-2.4-1.8-3.9c-0.2-1.2,0.1-2.7,1-4.4c0.9-1.7,2.1-3.3,3.7-5
		c1.6-1.6,3.4-3,5.3-4.1c1.9-1.2,3.8-1.9,5.6-2.2c1.3-0.2,2.3-0.2,3.1-0.1c0.8,0.2,1.2,0.5,1.3,1c0.1,0.4-0.2,0.9-0.7,1.5
		c1,0,1.8,0.1,2.2,0.4c0.4,0.3,0.7,0.9,0.9,1.9c0.2,0.9,0.1,2.1-0.3,3.6c-0.4,1.5-1,3-1.8,4.4l0.8,0.4l0.6-0.1
		c0.5-0.1,0.9-0.2,1.3-0.5c0.4-0.2,0.8-0.5,1.1-0.7C167.4,52.1,168.1,51.6,169.1,50.7z M159.6,44.6c-2.1,1.3-3.8,2.5-5.3,3.6
		c-1.5,1-2.7,2.1-3.6,3.1c-1,1-1.6,1.9-1.8,2.8c-0.3,2.3-0.4,3.5-0.4,3.7c0.2,1.3,1.6,1.7,4,1.3c1.2-0.2,3-1.2,5.4-3.1
		c-0.6-0.8-1-1.7-1.1-2.5c-0.2-1.2-0.1-2.5,0.4-3.9C157.7,48.1,158.5,46.4,159.6,44.6z"/>
	<path class="st0" d="M174.2,50.1l-0.4,2.5c-0.1,0.3-0.1,0.7,0,1.1c0.2,1,0.8,1.5,2,1.3c1.2-0.2,3.7-2.2,7.7-6.1
		c-0.2-1.3,0.3-2.8,1.3-4.6c1-1.8,2.2-3.5,3.6-4.9c1.4-1.5,2.4-2.2,3.2-2.4c1.2-0.2,1.9,0.3,2,1.4c0.1,0.7,0,1.5-0.3,2.6
		c-0.3,1-0.8,2.2-1.6,3.5s-1.6,2.6-2.8,4c0.8,0.8,1.5,1.1,2.3,1c0.6-0.1,1.2-0.3,1.9-0.7c0.7-0.4,1.5-1,2.5-1.8l0.3,1.9
		c-1.4,1.1-2.5,1.8-3.3,2.3s-1.9,0.8-3.3,1c-0.5,0.1-1.5,0-3-0.4c-2.4,2.5-4.5,4.4-6,5.7c-1.6,1.3-2.9,2-4,2.2
		c-1.9,0.3-3.6-0.3-5.1-1.7c-1.5-1.4-2.4-3.1-2.7-5c-0.4-2.6,1.2-5.9,4.7-10.1c1.1-1.3,1.9-2.1,2.6-2.6c0.7-0.5,1.5-0.8,2.4-1
		c0.8-0.1,1.6-0.1,2.3,0c0.8,0.1,1.2,0.3,1.2,0.6c0.1,1-0.6,2.5-2.1,4.6C178.3,46.5,176.4,48.4,174.2,50.1z"/>
	<path class="st0" d="M215,44.6l0.3,2.1c-2.3,2.7-4.5,4.9-6.7,6.4s-4,2.4-5.6,2.6c-2.2,0.3-4-0.4-5.3-1.9c-1.3-1.5-2.1-3.3-2.3-5.3
		c-0.1-0.8-0.1-1.5,0.1-2.2c0.1-0.7,0.3-1.3,0.6-1.8c0.2-0.5,0.7-1.2,1.4-2.3c3.3-4.8,6.6-7.3,9.7-7.7c1.6-0.2,2.5,0.2,2.6,1.1
		c0.1,0.6-0.3,1.7-1.2,3.1c-0.9,1.5-1.7,2.5-2.5,3.2c-2.1,1.9-3.5,3.2-4.2,4c-0.6,0.7-0.9,1.5-0.8,2.3c0.1,0.7,0.5,1.2,1.3,1.6
		c0.8,0.4,1.8,0.5,2.9,0.3c1.3-0.2,2.6-0.7,4.1-1.5C210.9,47.7,212.7,46.4,215,44.6z M210.6,32c-0.7,0.1-1.3,0-2-0.3s-1-0.7-1.1-1.3
		c-0.1-0.9,0.3-1.9,1.3-3.1c1-1.2,2.1-1.9,3.3-2c0.8-0.1,1.5,0,2.1,0.3c0.6,0.3,0.9,0.8,1,1.5c0.1,0.8-0.3,1.8-1.3,3
		C213,31.2,211.9,31.8,210.6,32z"/>
	<path class="st0" d="M221.1,45l0.1,0.7c0.1,1.1,0.6,2,1.5,2.6c0.9,0.6,1.9,0.8,3.2,0.6c1.3-0.1,2.7-0.5,4.1-1.1s2.7-1.3,4.1-2.2
		s2.9-2.1,4.8-3.5l0.2,1.8c-2.8,3-5.4,5.3-8,7c-2.5,1.7-5.2,2.7-7.9,3c-2.4,0.3-4.4-0.2-5.9-1.4c-1.5-1.2-2.4-3-2.7-5.3
		c-0.2-2,0.3-4,1.4-5.8c1.2-1.8,3.1-3.8,5.9-5.9c1.9-1.5,3.9-2.6,5.8-3.5s3.7-1.4,5.3-1.5c1.3-0.1,2.3,0,3.1,0.3
		c0.8,0.3,1.2,0.9,1.3,1.8c0.1,1.2-0.4,2.5-1.5,3.9c-1.1,1.3-3,2.8-5.4,4.2C227.9,42,224.8,43.5,221.1,45z M221.3,43.1
		c2.4-0.9,4.4-2,6-3.2c1.6-1.2,2.8-2.3,3.5-3.3s1.1-1.7,1-2.2c0-0.4-0.4-0.6-0.9-0.6c-0.5,0.1-1.3,0.4-2.3,0.9
		c-1,0.6-2.1,1.3-3.1,2.1c-1,0.8-2,1.8-2.8,2.9C221.9,40.8,221.4,41.9,221.3,43.1z"/>
	<path class="st0" d="M237.2,44.7l-0.2-2c3.6-3.3,6.6-6.3,9.2-9.1c2.5-2.8,4.6-5.1,6-6.7c1.5-1.7,2.8-2.9,4-3.6
		c1.2-0.7,2.7-1.2,4.5-1.3c0.9-0.1,1.4,0.1,1.4,0.6c0,0.4-0.3,1-1,1.9c-0.7,0.9-1.6,1.8-2.7,2.7c-1.5,1.2-2.9,2.7-4.2,4.5
		c-1.3,1.8-2.9,4-4.5,6.7c1.4-0.9,3-2,4.8-3.3c1.8-1.3,3.3-2.3,4.5-3c1.2-0.7,2.3-1.3,3.5-1.8c1.2-0.5,2.3-0.7,3.5-0.8
		c0.8-0.1,1.3,0,1.5,0.2c0.2,0.2,0.4,0.5,0.4,1.1c0.1,1.5-0.3,3-1.2,4.5c-0.9,1.5-2.2,3.1-4,4.7s-3.9,3.5-6.5,5.5c1,0.2,2,0.2,3,0.1
		c3.1-0.3,7.2-2.3,12.2-6.2l0.2,2.1c-2,1.5-3.9,2.9-5.7,4.2c-1.9,1.3-3.7,2.4-5.3,3.2c-1.7,0.8-3.3,1.3-4.7,1.4c-0.5,0-1.1,0-1.7,0
		c-0.6,0-1.2-0.1-1.7-0.2c-0.5-0.1-1.2-0.2-2-0.4c-0.8-0.2-1.5-0.3-1.9-0.3c-0.9,0.2-1.3,0.3-1.4,0.4c-1,0.1-2.1-0.1-3.4-0.6
		c-0.8,1.3-1.7,3-2.6,5.1c-0.9,2.1-1.7,3.7-2.3,4.9c-0.6,1.2-1.5,2.4-2.7,3.6c-0.6,0.5-1.1,0.8-1.4,0.8c-1.2,0.1-1.8-0.6-1.9-2.1
		c-0.1-1.3,0.2-2.7,0.8-4.1s1.4-2.8,2.3-4.2c0.9-1.3,2-2.7,3.1-4.1c1.1-1.4,2-2.4,2.4-3.1c3.9-5.6,6.8-10.4,8.9-14.3
		C244.6,37.7,240.2,42,237.2,44.7z M253.8,44.8c2.5-2.2,4.4-4.1,5.6-5.6s1.8-2.7,1.7-3.4c-0.1-0.7-0.6-1-1.6-1
		c-1.4,0.1-3.2,1.1-5.5,2.9c-2.3,1.8-4.7,4.2-7.1,7.1c2-0.3,3.3-0.5,4-0.5C251.6,44.2,252.6,44.4,253.8,44.8z"/>
	<path class="st0" d="M277.7,40.3l0,0.7c0.1,1.2,0.5,2,1.3,2.6c0.8,0.6,1.9,0.9,3.1,0.8c1.3-0.1,2.7-0.4,4.1-0.9
		c1.4-0.5,2.8-1.2,4.2-2c1.4-0.8,3-1.9,5-3.3l0.1,1.8c-2.9,2.8-5.7,5-8.3,6.6s-5.3,2.4-8.1,2.6c-2.4,0.1-4.4-0.4-5.9-1.7
		c-1.5-1.3-2.3-3.1-2.4-5.4c-0.1-2,0.5-3.9,1.7-5.7c1.2-1.7,3.3-3.6,6.2-5.6c2-1.4,4-2.4,6-3.2c2-0.8,3.8-1.2,5.4-1.3
		c1.3-0.1,2.3,0.1,3.1,0.5c0.8,0.4,1.2,1,1.2,1.8c0.1,1.2-0.5,2.5-1.7,3.8c-1.2,1.3-3.1,2.6-5.7,3.9C284.6,37.6,281.5,39,277.7,40.3
		z M278,38.4c2.4-0.8,4.5-1.8,6.1-2.9c1.7-1.1,2.9-2.1,3.7-3.1c0.8-1,1.2-1.7,1.1-2.1c0-0.4-0.3-0.7-0.9-0.6c-0.5,0-1.3,0.3-2.3,0.8
		c-1.1,0.5-2.2,1.2-3.3,1.9c-1.1,0.8-2.1,1.7-2.9,2.7C278.8,36.1,278.2,37.2,278,38.4z"/>
	<path class="st0" d="M314,37.9c-2.4,2-4.5,3.7-6.3,5.1c-1.9,1.4-3.4,2.5-4.5,3.2s-2,1.1-2.4,1.1c-0.7,0-1.5-0.4-2.4-1.2
		c-0.9-0.8-1.7-1.8-2.3-3.1c-0.7-1.3-1-2.5-1-3.8c0-1.9,1.2-3.8,3.7-5.8s5.4-3.6,8.6-5s5.7-2,7.3-2.1c1.3,0,2.7,0.5,4,1.7
		c2-3.2,4-6,5.8-8.5c1.8-2.5,3.4-4.3,4.6-5.6c1.3-1.2,2.2-1.8,2.7-1.8c0.6,0,1.2,0.2,1.7,0.6c0.5,0.4,0.8,0.9,0.8,1.4
		c0,1-1,2.8-3,5.3c-2,2.5-4,5-6,7.4c-2,2.4-3.6,4.7-5,7c-1.4,2.3-2.1,4.4-2,6.4c0,1.8,0.8,2.6,2.4,2.6c1,0,2.1-0.4,3.6-1.2
		c1.4-0.8,3.5-2.1,6.1-4l0,2.1c-5.8,5.6-10.2,8.4-13.4,8.5c-1.3,0-2.2-0.3-2.8-1c-0.6-0.7-0.9-1.7-0.9-3.1
		C313.1,42.1,313.4,40.1,314,37.9z M316.8,30.7c-2.4,0.6-5.2,1.6-8.5,3c-3.2,1.4-5.2,2.3-5.9,2.8c-0.6,0.4-1.1,1.1-1.5,2.2
		c-0.4,1.1-0.7,1.9-0.6,2.4c0,0.3,0.1,0.6,0.4,0.8c0.3,0.2,0.6,0.3,1,0.3c0.4,0,0.8-0.1,1.3-0.4c0.5-0.2,1.3-0.7,2.3-1.4
		c1.1-0.7,1.8-1.2,2.1-1.4c0.5-0.3,1.5-1,3-2c1.6-1,2.7-1.8,3.4-2.3c0.7-0.6,1.3-1.2,1.8-1.9C316.3,32.2,316.6,31.5,316.8,30.7z"/>
	<path class="st0" d="M349.5,37.7l0,2.1c-2.7,2.4-5.1,4.2-7.4,5.5s-4.2,1.8-5.9,1.8c-2.2,0-3.9-0.9-5-2.6c-1.1-1.7-1.6-3.5-1.6-5.5
		c0-0.8,0.1-1.5,0.3-2.2s0.5-1.3,0.8-1.7c0.3-0.4,0.9-1.1,1.7-2.1c3.9-4.3,7.5-6.4,10.7-6.4c1.7,0,2.5,0.5,2.5,1.4
		c0,0.6-0.6,1.6-1.6,2.9c-1.1,1.3-2.1,2.3-2.9,2.8c-2.4,1.6-3.9,2.8-4.7,3.4s-1.1,1.4-1.1,2.2c0,0.7,0.4,1.3,1.1,1.8
		c0.7,0.5,1.7,0.7,2.9,0.7c1.3,0,2.7-0.3,4.2-1C345.1,40.3,347.1,39.2,349.5,37.7z M346.9,24.6c-0.7,0-1.3-0.2-1.9-0.6
		s-0.9-0.8-0.9-1.4c0-0.9,0.6-1.8,1.7-2.9c1.2-1,2.3-1.6,3.6-1.6c0.8,0,1.5,0.2,2,0.6c0.5,0.4,0.8,0.9,0.8,1.6
		c0,0.8-0.6,1.8-1.7,2.8C349.4,24.1,348.2,24.6,346.9,24.6z"/>
	<path class="st0" d="M354,32.6c4.2-2.5,8.3-4.4,12.3-5.5c3.9-1.1,7-1.7,9.1-1.6c0.6,0,1.1,0.2,1.6,0.6c0.5,0.4,0.8,0.8,1.1,1.2
		s0.4,0.8,0.4,1c0,0.4-0.2,0.6-0.6,0.8c-0.4,0.1-1.1,0.3-2,0.5c0.2,0.3,0.4,0.7,0.7,1.2c0.3,0.5,0.5,0.9,0.6,1.2s0.2,0.6,0.2,0.8
		c0,0.5-0.7,1.3-2.1,2.5s-2.3,2.1-2.9,2.7c-0.6,0.6-0.9,1.3-0.9,2.2c-0.1,1.4,0.8,2.2,2.7,2.3c1.9,0.1,4.9-1.1,9.1-3.5l-0.1,1.8
		c-7.1,5.2-12.1,7.7-15.1,7.6c-1.1,0-1.8-0.3-2.2-0.8c-0.4-0.5-0.6-1.3-0.6-2.2c0.1-1.5,0.9-3.7,2.6-6.6c-4.1,3-7.1,5.1-9.1,6.4
		s-3.6,1.9-4.9,1.8c-0.6,0-1.3-0.4-2.2-1.2c-0.9-0.8-1.6-1.8-2.3-3c-0.6-1.2-0.9-2.4-0.9-3.7c0-0.9,0.2-1.7,0.5-2.3s0.8-1.2,1.5-1.8
		S352.4,33.6,354,32.6z M373.6,30.2c-7.2,2-12.3,3.8-15.4,5.3c-3.1,1.5-4.6,3.1-4.7,4.8c0,0.6,0.1,1.1,0.4,1.6
		c0.3,0.4,0.7,0.6,1.2,0.7c0.3,0,0.8-0.1,1.6-0.3c2.9-1.1,5.6-2.6,8-4.4S370.2,33.4,373.6,30.2z"/>
</g>
</svg>
